<svg width="936" height="900" viewBox="0 0 936 900" fill="none" xmlns="http://www.w3.org/2000/svg">
<path d="M515.807 156C581.307 94.5 615.469 -92.8966 589.735 -169H1229.4C1289.27 -169 1404.29 9.85434 1426.34 77.6022C1448.4 145.35 1279.03 197.516 1199.47 204.968C1119.9 212.42 803.806 465.302 803.806 519.5C803.806 573.698 686.306 965 467.307 965C248.308 965 116.442 970.66 29 804C-58.442 637.34 77.3067 389 161.307 314C249.482 235.272 471.611 197.496 515.807 156Z" fill="#FF7200" fill-opacity="0.48"/>
<path d="M589.493 194.227C610.051 166.12 691.685 33.1979 674.553 -24C803.215 -24 957.752 -12.5 989.637 -12.5C1029.49 -12.5 1106.06 121.924 1120.75 172.842C1135.43 223.76 1022.68 262.966 969.709 268.567C916.741 274.168 733.188 439.652 733.188 480.386C733.188 521.121 589.493 819.5 443.7 819.5C297.907 819.5 252.806 780.802 194.593 655.544C136.381 530.286 247.481 371.267 280.076 335.779C328.553 283 563.796 229.36 589.493 194.227Z" fill="#FF7200" fill-opacity="0.48"/>
</svg>
